<svg xmlns="http://www.w3.org/2000/svg" id="Group_7029" width="123.188" height="134.734" data-name="Group 7029" viewBox="0 0 123.188 134.734">
    <defs>
        <style>
            .cls-1,.cls-2{fill:#1ac977}.cls-1,.cls-4,.cls-5{opacity:.2}.cls-1,.cls-5{isolation:isolate}.cls-3,.cls-5{fill:#444b54}
        </style>
    </defs>
    <g id="Group_6055" data-name="Group 6055" transform="translate(4.682)">
        <rect id="Rectangle_726" width="44.136" height="55.92" class="cls-1" data-name="Rectangle 726" rx="7.168" transform="rotate(-79.98 87.57 46.92)"/>
        <path id="Path_30938" d="M113.828 557.722a1.8 1.8 0 0 1-1.025-.321l-7.909-5.477-7.385 2.888a1.8 1.8 0 0 1-2.432-1.969l2.289-13.938a1.8 1.8 0 1 1 3.553.583l-1.776 10.818 5.333-2.085a1.8 1.8 0 0 1 1.68.2l6.425 4.448 3.359-17.506a1.8 1.8 0 0 1 3.536.678l-3.88 20.22a1.8 1.8 0 0 1-1.768 1.462z" class="cls-2" data-name="Path 30938" transform="translate(-50.72 -454.078)"/>
        <g id="Group_6048" data-name="Group 6048">
            <path id="Path_30939" d="M140 463.67h-.018a1.8 1.8 0 0 1-1.783-1.818c.014-1.39 0-2.756-.037-4.061-.5-17.9-3.61-25.875-11.818-30.084-4 .55-7.292 4.31-8.905 6.152-.215.246-.4.459-.557.628a1.8 1.8 0 1 1-2.651-2.438c.139-.151.305-.342.5-.563 1.837-2.1 6.137-7.007 11.819-7.421a1.787 1.787 0 0 1 .917.176c11.326 5.5 13.819 16.427 14.3 33.446.039 1.35.052 2.763.038 4.2A1.8 1.8 0 0 1 140 463.67z" class="cls-3" data-name="Path 30939" transform="translate(-55.951 -423.351)"/>
            <path id="Path_30940" d="M97.577 464.713a1.8 1.8 0 0 1-1.709-2.368 85.855 85.855 0 0 1 4.618-11.2 1.8 1.8 0 1 1 3.224 1.6 82.217 82.217 0 0 0-4.423 10.727 1.8 1.8 0 0 1-1.71 1.241z" class="cls-3" data-name="Path 30940" transform="translate(-50.922 -430.649)"/>
            <path id="Path_30941" d="M131.31 496.345a1.8 1.8 0 0 1-1.667-1.119 20.6 20.6 0 0 0-5.5-7.694 20.512 20.512 0 0 0-28.943 1.973 1.8 1.8 0 0 1-2.714-2.367 24.114 24.114 0 0 1 34.024-2.32 24.227 24.227 0 0 1 6.468 9.045 1.8 1.8 0 0 1-1.666 2.482z" class="cls-3" data-name="Path 30941" transform="translate(-49.877 -438.685)"/>
            <path id="Path_30942" d="M180.847 502.8a1.8 1.8 0 0 1-1.294-.548c-.668-.69-1.3-1.4-1.909-2.079-2.922-3.269-5.682-6.357-12.418-7.613-7.914-1.475-14.611 1.869-17.737 5.839a1.8 1.8 0 0 1-2.829-2.227c3.518-4.47 11.187-9.024 21.226-7.152 7.943 1.481 11.4 5.344 14.442 8.753.614.686 1.194 1.335 1.812 1.974a1.8 1.8 0 0 1-1.294 3.053z" class="cls-3" data-name="Path 30942" transform="translate(-64.489 -441.402)"/>
            <path id="Path_30943" d="M127.113 529.085a1.8 1.8 0 0 1-1.579-2.662l10.055-18.459a1.8 1.8 0 0 1 3.162 1.723L128.7 528.146a1.8 1.8 0 0 1-1.587.939z" class="cls-3" data-name="Path 30943" transform="translate(-59.185 -446.56)"/>
            <path id="Path_30944" d="M124.295 504.226a1.8 1.8 0 0 1-1-3.3l28.152-18.67c.017-.745.032-2.217.019-5.1-.606-24.7-19.228-45.644-44.282-49.759-24.908-4.097-49.212 9.68-57.784 32.748a26.508 26.508 0 0 0-1.219 4.248l20.725 27.777a1.8 1.8 0 1 1-2.887 2.154l-21.2-28.414a1.8 1.8 0 0 1-.325-1.417l.144-.749a30.06 30.06 0 0 1 1.389-4.864c9.162-24.668 35.127-39.411 61.738-35.041 26.759 4.395 46.65 26.794 47.3 53.261.012 2.53 0 4.32-.023 5.356-.023.884-.05 1.96-1.028 2.417l-28.73 19.053a1.807 1.807 0 0 1-.989.3z" class="cls-3" data-name="Path 30944" transform="translate(-36.568 -423.075)"/>
            <path id="Path_30945" d="M99.465 524.4a1.8 1.8 0 0 1-1.773-1.5l-3.663-21.586a1.8 1.8 0 0 1 3.551-.6l3.663 21.586a1.8 1.8 0 0 1-1.778 2.1z" class="cls-3" data-name="Path 30945" transform="translate(-50.426 -444.375)"/>
            <path id="Path_30946" d="M80.206 488.2a1.8 1.8 0 0 1-1.7-1.2c-1.692-4.762-6.966-10.073-14.937-11.2-6.937-.984-10.609 1.06-14.5 3.225-.651.362-1.3.725-1.97 1.075a1.8 1.8 0 0 1-1.675-3.188c.641-.336 1.267-.686 1.893-1.034 4.237-2.359 8.616-4.8 16.754-3.644 10.109 1.434 15.921 8.2 17.825 13.563a1.8 1.8 0 0 1-1.7 2.4z" class="cls-3" data-name="Path 30946" transform="translate(-36.568 -436.743)"/>
            <path id="Path_30947" d="M109.011 445.952a1.8 1.8 0 0 1-1.8-1.8 1.956 1.956 0 0 1 .036-.353 1.75 1.75 0 0 1 .266-.648 2.652 2.652 0 0 1 .223-.274 1.8 1.8 0 0 1 2.276-.223 1.749 1.749 0 0 1 .5.5 1.751 1.751 0 0 1 .266.648 1.956 1.956 0 0 1 .036.353 1.835 1.835 0 0 1-.526 1.275 2.655 2.655 0 0 1-.274.223 1.751 1.751 0 0 1-.648.266 1.947 1.947 0 0 1-.355.033z" class="cls-3" data-name="Path 30947" transform="translate(-54.121 -428.468)"/>
            <path id="Path_30948" d="M67.066 557.54h-8.01a1.8 1.8 0 0 1 0-3.6h8.011a1.8 1.8 0 0 1 0 3.6z" class="cls-3" data-name="Path 30948" transform="translate(-40.146 -459.684)"/>
            <path id="Path_30949" d="M48.466 544.627h-1.117a1.8 1.8 0 1 1 0-3.6h1.117a1.8 1.8 0 1 1 0 3.6z" class="cls-3" data-name="Path 30949" transform="translate(-36.87 -456.072)"/>
            <path id="Path_30950" d="M35.3 568.582a1.471 1.471 0 0 1-.353-.035 2.1 2.1 0 0 1-.339-.1 1.828 1.828 0 0 1-.583-.389 1.676 1.676 0 0 1-.223-.274 1.842 1.842 0 0 1-.166-.31 1.808 1.808 0 0 1-.1-.338 1.9 1.9 0 0 1-.036-.354 1.8 1.8 0 0 1 .526-1.267 2.845 2.845 0 0 1 .274-.231 1.845 1.845 0 0 1 .31-.158 1.4 1.4 0 0 1 .339-.108 1.938 1.938 0 0 1 .706 0 1.4 1.4 0 0 1 .339.108 1.845 1.845 0 0 1 .31.158 2.846 2.846 0 0 1 .274.231 1.8 1.8 0 0 1 .526 1.267 1.9 1.9 0 0 1-.036.354 1.808 1.808 0 0 1-.1.338 1.843 1.843 0 0 1-.166.31 1.676 1.676 0 0 1-.223.274 1.8 1.8 0 0 1-1.279.524z" class="cls-3" data-name="Path 30950" transform="translate(-33.5 -462.775)"/>
            <path id="Path_30951" d="M109.188 580.75a7.673 7.673 0 0 1-1.246-.1l-43.689-7.173A7.588 7.588 0 0 1 58 564.769l1.188-7.077H44.229a1.8 1.8 0 1 1 0-3.6h17.089a1.8 1.8 0 0 1 1.776 2.1l-1.539 9.169a3.983 3.983 0 0 0 3.283 4.564l43.689 7.173a3.98 3.98 0 0 0 4.571-3.28l5.315-32.373a3.984 3.984 0 0 0-3.281-4.571l-43.69-7.174a3.985 3.985 0 0 0-4.571 3.281l-.933 6.227a1.8 1.8 0 0 1-1.78 1.534h-9.732a1.8 1.8 0 1 1 0-3.6h8.181l.707-4.718a7.6 7.6 0 0 1 8.712-6.277l43.689 7.173a7.589 7.589 0 0 1 6.251 8.708L116.65 574.4a7.584 7.584 0 0 1-7.462 6.353z" class="cls-3" data-name="Path 30951" transform="translate(-35.998 -451.881)"/>
        </g>
    </g>
    <g id="Group_6056" class="cls-4" data-name="Group 6056" transform="translate(104.851 94.034)">
        <path id="Path_30952" d="M180.743 566.2a1.44 1.44 0 0 1-1.441-1.44v-9.688a1.44 1.44 0 1 1 2.881 0v9.688a1.441 1.441 0 0 1-1.44 1.44z" class="cls-3" data-name="Path 30952" transform="translate(-174.458 -553.632)"/>
        <path id="Path_30953" d="M183.705 563.237h-9.689a1.441 1.441 0 0 1 0-2.881h9.689a1.441 1.441 0 0 1 0 2.881z" class="cls-3" data-name="Path 30953" transform="translate(-172.576 -555.513)"/>
    </g>
    <path id="Path_30954" d="M33.122 456.812a6.122 6.122 0 1 1 6.122-6.122 6.129 6.129 0 0 1-6.122 6.122zm0-9.363a3.241 3.241 0 1 0 3.241 3.241 3.245 3.245 0 0 0-3.241-3.241z" class="cls-5" data-name="Path 30954" transform="translate(-27 -429.088)"/>
</svg>
