<svg xmlns="http://www.w3.org/2000/svg" id="Group_7031" width="120.486" height="134.557" data-name="Group 7031" viewBox="0 0 120.486 134.557">
    <defs>
        <style>
            .cls-1,.cls-2{fill:#1ac977}.cls-1,.cls-4,.cls-5{opacity:.2}.cls-1,.cls-5{isolation:isolate}.cls-3,.cls-5{fill:#444b54}
        </style>
    </defs>
    <g id="Group_6059" data-name="Group 6059">
        <path id="Path_6154" d="M974.021 568.565a8.937 8.937 0 0 0 0-12.638 8.94 8.94 0 0 1-2.617-6.319 8.936 8.936 0 0 0-8.935-8.937 8.93 8.93 0 0 1-6.319-2.617 8.937 8.937 0 0 0-12.638 0 8.935 8.935 0 0 1-6.319 2.617 8.937 8.937 0 0 0-8.936 8.938 8.939 8.939 0 0 1-2.617 6.319 8.937 8.937 0 0 0 0 12.638 8.936 8.936 0 0 1 2.617 6.319 8.937 8.937 0 0 0 8.935 8.936 8.939 8.939 0 0 1 6.319 2.617 8.937 8.937 0 0 0 12.638 0 8.933 8.933 0 0 1 6.319-2.617 8.936 8.936 0 0 0 8.936-8.936 8.936 8.936 0 0 1 2.617-6.32z" class="cls-1" data-name="Path 6154" transform="translate(-876.553 -454.498)"/>
        <path id="Path_30970" d="M946.316 570.786a2.152 2.152 0 0 1-1.528-.633l-5.306-5.305a2.16 2.16 0 0 1 3.055-3.055l3.778 3.778L958.19 553.7a2.161 2.161 0 0 1 3.055 3.056l-13.4 13.4a2.154 2.154 0 0 1-1.529.63z" class="cls-2" data-name="Path 30970" transform="translate(-880.981 -459.429)"/>
        <g id="Group_6051" data-name="Group 6051">
            <path id="Path_30971" d="M991.4 516.527a1.8 1.8 0 0 1-1.8-1.8c0-7.218 1.69-23.812 1.762-24.514a1.8 1.8 0 1 1 3.583.367c-.018.17-1.744 17.114-1.744 24.148a1.8 1.8 0 0 1-1.801 1.799z" class="cls-3" data-name="Path 30971" transform="translate(-895.178 -441.393)"/>
            <path id="Path_30972" d="M891.809 522.787a1.8 1.8 0 0 1-1.8-1.8c0-1.947-.133-4.891-.373-8.289a1.8 1.8 0 0 1 3.593-.253c.246 3.48.382 6.514.382 8.543a1.8 1.8 0 0 1-1.802 1.799z" class="cls-3" data-name="Path 30972" transform="translate(-867.212 -447.597)"/>
            <path id="Path_30973" d="M890.317 500.342a1.8 1.8 0 0 1-1.792-1.645c-.4-4.659-.764-8.165-.768-8.2a1.8 1.8 0 0 1 3.583-.369c0 .035.367 3.567.774 8.257a1.8 1.8 0 0 1-1.639 1.95q-.08.007-.158.007z" class="cls-3" data-name="Path 30973" transform="translate(-866.685 -441.371)"/>
            <path id="Path_30974" d="M876.086 512.266a4.274 4.274 0 0 1-2.674-.941l-13.327-10.668a4.2 4.2 0 0 1-1.12-5.2l14.769-30.809a5.555 5.555 0 0 1 2.173-2.3c.048-.027.1-.053.148-.076l17.442-8.024a4.389 4.389 0 0 1 5.876 1.5c4.863 7.976 11.6 12.4 18.973 12.476 7.5.057 14.753-4.5 19.9-12.552a4.432 4.432 0 0 1 5.861-1.446l17.48 8.048c.049.023.1.048.145.076a5.516 5.516 0 0 1 2.153 2.255l5.066 10.558a1.8 1.8 0 1 1-3.247 1.557l-5.042-10.511a1.884 1.884 0 0 0-.669-.7l-17.464-8.042a1.885 1.885 0 0 1-.16-.084.823.823 0 0 0-1.106.255c-5.812 9.1-14.2 14.262-22.955 14.189-8.539-.089-16.556-5.257-22-14.179a.8.8 0 0 0-1.079-.241 1.671 1.671 0 0 1-.16.084l-17.421 8.009a1.924 1.924 0 0 0-.689.75l-14.768 30.81a.612.612 0 0 0 .138.782l13.332 10.671a.687.687 0 0 0 .887-.028l5.365-4.864a1.8 1.8 0 0 1 2.419 2.669l-5.37 4.867a4.294 4.294 0 0 1-2.876 1.109z" class="cls-3" data-name="Path 30974" transform="translate(-858.504 -431.622)"/>
            <path id="Path_30975" d="M991.4 529.094a1.8 1.8 0 0 1-1.8-1.8v-11.545a1.8 1.8 0 0 1 3.02-1.325l5.285 4.867a.624.624 0 0 0 .812.024l13.117-10.667a.623.623 0 0 0 .162-.761l-6.17-13.067a1.8 1.8 0 1 1 3.256-1.537l6.149 13.023a4.231 4.231 0 0 1-1.126 5.137l-13.116 10.666a4.241 4.241 0 0 1-5.526-.169l-2.264-2.085v7.439a1.8 1.8 0 0 1-1.799 1.8z" class="cls-3" data-name="Path 30975" transform="translate(-895.178 -442.416)"/>
            <path id="Path_30976" d="M905.153 574.349a1.714 1.714 0 0 1-.356-.035c-2.952-.591-5.911-1.032-8.522-1.422-1.266-.189-2.439-.364-3.474-.535a2.588 2.588 0 0 1-.2-.045 3.3 3.3 0 0 1-2.381-3.3v-44.833a1.8 1.8 0 0 1 3.6 0v44.7c.907.146 1.911.3 2.982.455 2.652.4 5.658.845 8.7 1.453a1.8 1.8 0 0 1-.352 3.566z" class="cls-3" data-name="Path 30976" transform="translate(-867.377 -450.844)"/>
            <path id="Path_30977" d="M939.832 442.759a1.8 1.8 0 0 1-1.8-1.8v-2.712a5.725 5.725 0 0 1 3.353-5.094 3.431 3.431 0 0 0-1.551-6.491 3.433 3.433 0 0 0-3.427 3.432 1.8 1.8 0 0 1-1.8 1.8 1.8 1.8 0 0 1-1.8-1.8 7.038 7.038 0 0 1 7.026-7.036 7.031 7.031 0 0 1 3.077 13.353 2.116 2.116 0 0 0-1.279 1.875v2.67a1.8 1.8 0 0 1-1.799 1.803z" class="cls-3" data-name="Path 30977" transform="translate(-879.29 -423.06)"/>
            <path id="Path_30978" d="M913.373 456.849a1.8 1.8 0 0 1-.821-3.4l14.77-7.547a1.68 1.68 0 0 1 .16-.072c1.292-.508 11.225-.5 12.5.007.054.022.107.045.158.072l14.493 7.48a1.8 1.8 0 0 1-1.652 3.2l-14.291-7.376a78.677 78.677 0 0 0-9.934 0l-14.57 7.445a1.792 1.792 0 0 1-.813.191z" class="cls-3" data-name="Path 30978" transform="translate(-873.35 -429.323)"/>
            <path id="Path_30979" d="M942.557 582.691a10.7 10.7 0 0 1-7.592-3.139 7.092 7.092 0 0 0-5.045-2.089 10.75 10.75 0 0 1-10.736-10.737 7.092 7.092 0 0 0-2.09-5.046 10.737 10.737 0 0 1 0-15.184 7.093 7.093 0 0 0 2.09-5.045 10.75 10.75 0 0 1 10.737-10.739 7.089 7.089 0 0 0 5.045-2.09 10.751 10.751 0 0 1 15.185 0 7.081 7.081 0 0 0 5.044 2.09 10.736 10.736 0 0 1 10.737 10.737 7.087 7.087 0 0 0 2.09 5.045 10.749 10.749 0 0 1 0 15.184 7.091 7.091 0 0 0-2.09 5.047 10.749 10.749 0 0 1-10.732 10.738 7.088 7.088 0 0 0-5.044 2.089 10.7 10.7 0 0 1-7.599 3.139zm0-53.61a7.113 7.113 0 0 0-5.046 2.087 10.67 10.67 0 0 1-7.592 3.145 7.144 7.144 0 0 0-7.136 7.137 10.671 10.671 0 0 1-3.145 7.592 7.136 7.136 0 0 0 0 10.092 10.667 10.667 0 0 1 3.145 7.592 7.145 7.145 0 0 0 7.136 7.135 10.669 10.669 0 0 1 7.591 3.144 7.146 7.146 0 0 0 10.092 0 10.658 10.658 0 0 1 7.589-3.145 7.143 7.143 0 0 0 7.135-7.135 10.675 10.675 0 0 1 3.144-7.594 7.136 7.136 0 0 0 0-10.092 10.668 10.668 0 0 1-3.145-7.591 7.136 7.136 0 0 0-7.135-7.136 10.66 10.66 0 0 1-7.591-3.145 7.114 7.114 0 0 0-5.04-2.086z" class="cls-3" data-name="Path 30979" transform="translate(-874.015 -451.713)"/>
        </g>
    </g>
    <g id="Group_6060" class="cls-4" data-name="Group 6060" transform="translate(100.166 4.012)">
        <path id="Path_30980" d="M1005.742 441.2a1.441 1.441 0 0 1-1.441-1.44v-9.689a1.441 1.441 0 0 1 2.881 0v9.689a1.441 1.441 0 0 1-1.44 1.44z" class="cls-3" data-name="Path 30980" transform="translate(-999.458 -428.631)"/>
        <path id="Path_30981" d="M1008.705 438.237h-9.689a1.44 1.44 0 0 1 0-2.881h9.689a1.44 1.44 0 1 1 0 2.881z" class="cls-3" data-name="Path 30981" transform="translate(-997.576 -430.512)"/>
    </g>
    <path id="Path_30982" d="M872.073 447.89a6.25 6.25 0 1 1 6.25-6.25 6.211 6.211 0 0 1-6.25 6.25zm0-9.618a3.369 3.369 0 1 0 3.369 3.369 3.372 3.372 0 0 0-3.369-3.369z" class="cls-5" data-name="Path 30982" transform="translate(-860.552 -426.51)"/>
</svg>
