<svg xmlns="http://www.w3.org/2000/svg" id="Group_7030" width="131.408" height="129.55" data-name="Group 7030" viewBox="0 0 131.408 129.55">
    <defs>
        <style>
            .cls-1,.cls-8{fill:none}.cls-2,.cls-5{fill:#1ac977}.cls-10,.cls-2,.cls-9{opacity:.2}.cls-10,.cls-2{isolation:isolate}.cls-3{clip-path:url(#clip-path)}.cls-4{clip-path:url(#clip-path-2)}.cls-6{fill:#707070}.cls-10,.cls-7{fill:#444b54}.cls-8{stroke:#444b54;stroke-linecap:round;stroke-linejoin:round;stroke-width:5px}
        </style>
        <clipPath id="clip-path">
            <path id="Path_30956" d="M521.414 564.064a2.45 2.45 0 0 1 2.852-2.63c.591.149 7.767 1.716 10.2 2.6a2.412 2.412 0 0 1 1.221 3.186l-.028.061a3.98 3.98 0 0 1-1.008 1.08c-2.337 1.933-4.7 3.836-7.014 5.8a3.331 3.331 0 0 1-2.076 1.04 2.412 2.412 0 0 1-2.5-2.006q-.845-4.565-1.647-9.131z" class="cls-1" data-name="Path 30956" transform="translate(-521.405 -561.4)"/>
        </clipPath>
        <clipPath id="clip-path-2">
            <path id="Rectangle_3507" d="M0 0h207.608v32.871H0z" class="cls-1" data-name="Rectangle 3507"/>
        </clipPath>
    </defs>
    <g id="Group_6057" data-name="Group 6057">
        <path id="Path_6164" d="M549.471 589.76a7.445 7.445 0 0 0 7.419-6.817l2.277-26.888a7.352 7.352 0 0 0-6.746-7.911 7.393 7.393 0 0 0-.576-.023h-61.7a7.353 7.353 0 0 0-7.352 7.352c0 .194.008.388.023.581l2.277 26.888a7.445 7.445 0 0 0 7.419 6.817z" class="cls-2" data-name="Path 6164" transform="translate(-450.169 -460.21)"/>
        <g id="Group_32456" data-name="Group 32456" transform="translate(60.432 97.475)">
            <g id="Group_32455" class="cls-3" data-name="Group 32455">
                <g id="Group_6014" data-name="Group 6014" transform="translate(-178.911 -9.823)">
                    <g id="Group_32454" data-name="Group 32454">
                        <g id="Group_32453" class="cls-4" data-name="Group 32453">
                            <g id="Group_6013" data-name="Group 6013" transform="translate(175.653 6.569)">
                                <g id="Group_32452" data-name="Group 32452">
                                    <path id="Path_6161" d="M517.381 557.381h20.273v19.58h-20.273z" class="cls-5" data-name="Path 6161" transform="translate(-517.021 -557.021)"/>
                                    <path id="Path_30955" d="M537.514 577.181h-20.273a.359.359 0 0 1-.36-.36v-19.58a.359.359 0 0 1 .36-.36h20.273a.36.36 0 0 1 .36.36v19.58a.36.36 0 0 1-.36.36zm-19.913-.72h19.553V557.6H517.6z" class="cls-6" data-name="Path 30955" transform="translate(-516.881 -556.881)"/>
                                </g>
                            </g>
                        </g>
                    </g>
                </g>
            </g>
        </g>
        <g id="Group_6047" data-name="Group 6047">
            <path id="Path_30957" d="M567.107 596.576H439.3a1.8 1.8 0 1 1 0-3.6h127.807a1.8 1.8 0 1 1 0 3.6z" class="cls-7" data-name="Path 30957" transform="translate(-437.5 -472.758)"/>
            <path id="Path_30958" d="M549.275 579.466c-.05 0-.1 0-.152-.007a1.8 1.8 0 0 1-1.644-1.944l2.975-35.659a5.939 5.939 0 0 0-5.4-6.421q-.227-.019-.453-.022H480.3a5.936 5.936 0 0 0-5.862 5.985q0 .227.022.453l2.975 35.663a1.8 1.8 0 0 1-3.588.3l-2.975-35.659a10.2 10.2 0 0 1-.035-.725 9.545 9.545 0 0 1 9.447-9.619h64.334c.259 0 .5.014.745.035a9.544 9.544 0 0 1 8.683 10.313l-2.975 35.654a1.8 1.8 0 0 1-1.796 1.653z" class="cls-7" data-name="Path 30958" transform="translate(-446.825 -455.648)"/>
            <path id="Path_30959" d="M495.393 505.689a1.8 1.8 0 0 1-1-3.3c2.724-1.8 2.257-4.824 1.03-6.862a57.114 57.114 0 0 1-4.56-8.948c-.693-1.812-1.264-2.864-2.495-3.677-.31-.205-.673-.42-1.057-.65-2.012-1.2-4.516-2.7-4.885-5.16a78.9 78.9 0 0 1-.9-9.793 7.641 7.641 0 0 1 3.326-6.487c.187-.133.449-.3.735-.484a13.121 13.121 0 0 0 1.5-1.064 13.3 13.3 0 0 1-.341-2l-.224-2.3c0-.041-.006-.081-.008-.123-.1-3.389-.076-3.908-.01-5.45.029-.662.065-1.52.1-2.911.154-5.712 2.549-9.63 7.118-11.644a4.247 4.247 0 0 0 1.863-1.559c3.123-4.818 7.88-6.074 11.675-6.628 8.093-1.183 15.226-.587 21.8 1.824 9.174 3.368 14.411 9.4 15.564 17.923a32.041 32.041 0 0 1-.212 7.773c-.115 1.054-.224 2.05-.29 3.048a13.625 13.625 0 0 1-.342 2.045 13.049 13.049 0 0 0 1.506 1.068c.282.18.542.347.749.494a7.623 7.623 0 0 1 3.309 6.453 80.662 80.662 0 0 1-.9 9.819c-.305 2.027-2.06 3.387-3.736 4.449a1.8 1.8 0 1 1-1.927-3.042c1.741-1.1 2.065-1.695 2.1-1.95a76.762 76.762 0 0 0 .864-9.366 4.035 4.035 0 0 0-1.765-3.408 15.22 15.22 0 0 0-.632-.416c-1.493-.954-3.75-2.4-3.17-4.566a9.907 9.907 0 0 0 .355-1.865c.068-1.03.187-2.11.3-3.155a28.95 28.95 0 0 0 .223-6.9c-.973-7.2-5.3-12.112-13.235-15.024-6-2.2-12.556-2.736-20.043-1.641-4.582.668-7.329 2.175-9.183 5.037a7.853 7.853 0 0 1-3.433 2.885c-3.266 1.44-4.845 4.124-4.962 8.443-.04 1.419-.077 2.293-.106 2.967-.063 1.475-.083 1.927.01 5.13l.218 2.244a9.806 9.806 0 0 0 .35 1.836c.59 2.208-1.664 3.649-3.156 4.6-.233.148-.446.285-.616.4a4.057 4.057 0 0 0-1.785 3.443 75.264 75.264 0 0 0 .863 9.338c.119.789 2.1 1.975 3.171 2.612.436.261.846.506 1.2.737a10.113 10.113 0 0 1 3.862 5.365 53.626 53.626 0 0 0 4.277 8.379c2.631 4.37 1.757 9.19-2.11 11.749a1.794 1.794 0 0 1-.985.312z" class="cls-7" data-name="Path 30959" transform="translate(-449.816 -426.064)"/>
            <path id="Path_30960" d="M554.9 531.61a1.79 1.79 0 0 1-.979-.292c-3.935-2.557-4.825-7.385-2.163-11.74a1.8 1.8 0 1 1 3.073 1.878c-1.242 2.033-1.713 5.045 1.052 6.842a1.8 1.8 0 0 1-.983 3.311z" class="cls-7" data-name="Path 30960" transform="translate(-469.037 -451.984)"/>
            <path id="Path_30961" d="M601.274 577.019a1.8 1.8 0 0 1-1.745-1.364c-.888-3.546-2-7.519-2.728-10.148-.333-1.2-.589-2.116-.709-2.583-1.417-5.529-4.959-9.91-11.147-13.791a1.8 1.8 0 0 1 1.914-3.052c6.923 4.344 11.084 9.559 12.72 15.946.116.451.366 1.344.691 2.513.737 2.648 1.852 6.649 2.751 10.24a1.8 1.8 0 0 1-1.31 2.184 1.771 1.771 0 0 1-.437.055z" class="cls-7" data-name="Path 30961" transform="translate(-478.512 -459.563)"/>
            <path id="Path_30962" d="M449.306 575.825a1.781 1.781 0 0 1-.448-.057 1.8 1.8 0 0 1-1.3-2.191c.815-3.18 1.774-6.626 2.408-8.907.342-1.23.6-2.172.725-2.643 1.641-6.388 5.8-11.6 12.725-15.946a1.8 1.8 0 0 1 1.913 3.052c-6.188 3.881-9.731 8.262-11.15 13.788-.124.483-.393 1.451-.744 2.715-.668 2.4-1.584 5.691-2.389 8.835a1.8 1.8 0 0 1-1.74 1.354z" class="cls-7" data-name="Path 30962" transform="translate(-440.298 -459.562)"/>
            <path id="Path_30963" d="M536.9 508.289a1.8 1.8 0 0 1-.094-3.6l11.242-.6a4.363 4.363 0 0 0 4.038-3.472l1.128-5.5a1.8 1.8 0 1 1 3.528.724l-1.129 5.5a7.966 7.966 0 0 1-7.374 6.343l-11.242.6a.768.768 0 0 1-.097.005z" class="cls-7" data-name="Path 30963" transform="translate(-464.804 -444.979)"/>
            <path id="Path_30964" d="M491.3 485.409s-1.738-10.347-2.272-13.661a1.8 1.8 0 0 1 3.555-.573c.533 3.308 2.268 13.638 2.268 13.638z" class="cls-7" data-name="Path 30964" transform="translate(-451.907 -438.261)"/>
            <path id="Path_30965" d="M564.393 482.356l-3.551-.6s1.223-7.277 1.755-10.584a1.8 1.8 0 1 1 3.555.573c-.533 3.318-1.759 10.611-1.759 10.611z" class="cls-7" data-name="Path 30965" transform="translate(-472.005 -438.261)"/>
            <path id="Path_30966" d="M529.1 514.518h-7.52a4.687 4.687 0 0 1-4.682-4.682v-.628a4.687 4.687 0 0 1 4.682-4.682h7.52a4.687 4.687 0 0 1 4.682 4.682v.628a4.687 4.687 0 0 1-4.682 4.682zm-7.52-6.39a1.082 1.082 0 0 0-1.08 1.08v.628a1.082 1.082 0 0 0 1.08 1.08h7.52a1.082 1.082 0 0 0 1.08-1.08v-.628a1.082 1.082 0 0 0-1.08-1.08z" class="cls-7" data-name="Path 30966" transform="translate(-459.711 -448.015)"/>
        </g>
    </g>
    <g id="Group_6058" class="cls-9" data-name="Group 6058" transform="translate(112.413 18.414)">
        <path id="Path_30967" d="M601.742 464.2a1.441 1.441 0 0 1-1.44-1.441v-9.689a1.44 1.44 0 1 1 2.881 0v9.689a1.441 1.441 0 0 1-1.441 1.441z" class="cls-7" data-name="Path 30967" transform="translate(-595.458 -451.631)"/>
        <path id="Path_30968" d="M604.705 461.237h-9.689a1.441 1.441 0 1 1 0-2.881h9.689a1.441 1.441 0 0 1 0 2.881z" class="cls-7" data-name="Path 30968" transform="translate(-593.576 -453.512)"/>
    </g>
    <path id="Path_30969" d="M454.122 509.812a6.122 6.122 0 1 1 6.122-6.122 6.129 6.129 0 0 1-6.122 6.122zm0-9.363a3.241 3.241 0 1 0 3.241 3.241 3.245 3.245 0 0 0-3.241-3.241z" class="cls-10" data-name="Path 30969" transform="translate(-440.437 -446.068)"/>
</svg>
