<svg id="Component_53_1" data-name="Component 53 – 1" xmlns="http://www.w3.org/2000/svg" width="127.25" height="122.783" viewBox="0 0 127.25 122.783">
  <rect id="Rectangle_724" data-name="Rectangle 724" width="64.854" height="62.02" rx="8" transform="translate(38.617 60.763)" fill="#1ac977" opacity="0.2" style="isolation: isolate"/>
  <path id="Path_30984" data-name="Path 30984" d="M1369.573,558.182h-55.925a13.918,13.918,0,0,1-13.9-13.908v-55.92a13.926,13.926,0,0,1,13.9-13.9h6.771a1.8,1.8,0,1,1,0,3.6h-6.77a10.32,10.32,0,0,0-10.3,10.3v55.92a10.312,10.312,0,0,0,10.294,10.306h55.93a10.318,10.318,0,0,0,10.3-10.3V488.36a10.323,10.323,0,0,0-10.3-10.3h-7.045a1.8,1.8,0,0,1,0-3.6h7.046a13.931,13.931,0,0,1,13.9,13.9v55.922A13.925,13.925,0,0,1,1369.573,558.182Z" transform="translate(-1272.922 -442.002)" fill="#444b54"/>
  <path id="Path_30985" data-name="Path 30985" d="M1385.391,505.676h-69.644a1.8,1.8,0,0,1,0-3.6h69.644a1.8,1.8,0,1,1,0,3.6Z" transform="translate(-1276.898 -449.722)" fill="#444b54"/>
  <path id="Path_30986" data-name="Path 30986" d="M1331.861,484.161a5.824,5.824,0,0,1-5.817-5.817,1.8,1.8,0,1,1,3.6,0,2.216,2.216,0,1,0,4.432,0v-9.818a2.216,2.216,0,1,0-4.432,0v4.249a1.8,1.8,0,1,1-3.6,0v-4.249a5.817,5.817,0,1,1,11.635,0v9.818A5.823,5.823,0,0,1,1331.861,484.161Z" transform="translate(-1280.277 -438.709)" fill="#444b54"/>
  <path id="Path_30987" data-name="Path 30987" d="M1371.122,484.161a5.824,5.824,0,0,1-5.817-5.817,1.8,1.8,0,0,1,3.6,0,2.216,2.216,0,1,0,4.432,0v-9.818a2.215,2.215,0,1,0-4.43,0v4.249a1.8,1.8,0,0,1-1.8,1.8h-19.187a1.8,1.8,0,1,1,0-3.6h17.387v-2.449a5.816,5.816,0,1,1,11.632,0v9.816A5.824,5.824,0,0,1,1371.122,484.161Z" transform="translate(-1285.896 -438.709)" fill="#444b54"/>
  <path id="Path_30988" data-name="Path 30988" d="M1273.954,527.9a1.793,1.793,0,0,1-1.092-.37l-9.656-7.38a1.8,1.8,0,0,1,2.188-2.862l8.225,6.287,6.29-8.225a1.8,1.8,0,0,1,2.861,2.187l-7.384,9.656A1.8,1.8,0,0,1,1273.954,527.9Z" transform="translate(-1262.5 -453.24)" fill="#444b54"/>
  <path id="Path_30989" data-name="Path 30989" d="M1306.248,448.559a1.8,1.8,0,0,1-1.059-3.258l2.677-1.945a59.453,59.453,0,0,1,54.409-6.452,1.8,1.8,0,0,1-1.274,3.368,55.828,55.828,0,0,0-51.065,6.031l-2.632,1.912A1.791,1.791,0,0,1,1306.248,448.559Z" transform="translate(-1274.236 -430.424)" fill="#444b54"/>
  <path id="Path_30990" data-name="Path 30990" d="M1297.071,459.021a1.9,1.9,0,0,1-.353-.036,1.844,1.844,0,0,1-.339-.1,2.111,2.111,0,0,1-.31-.166,1.65,1.65,0,0,1-.274-.223,2,2,0,0,1-.224-.274,1.945,1.945,0,0,1-.165-.317,1.822,1.822,0,0,1-.108-.331,1.955,1.955,0,0,1-.029-.353,1.793,1.793,0,0,1,.526-1.275,1.643,1.643,0,0,1,.274-.223,1.588,1.588,0,0,1,.31-.166,1.835,1.835,0,0,1,.339-.1,1.632,1.632,0,0,1,.7,0,1.841,1.841,0,0,1,.339.1,1.561,1.561,0,0,1,.309.166,1.674,1.674,0,0,1,.275.223,1.794,1.794,0,0,1,.525,1.275,1.913,1.913,0,0,1-.029.353,1.7,1.7,0,0,1-.109.331,1.8,1.8,0,0,1-.165.317,2.042,2.042,0,0,1-.223.274,1.681,1.681,0,0,1-.275.223,2.066,2.066,0,0,1-.309.166,1.85,1.85,0,0,1-.339.1A1.886,1.886,0,0,1,1297.071,459.021Z" transform="translate(-1271.67 -436.672)" fill="#444b54"/>
  <path id="Path_30991" data-name="Path 30991" d="M1275.888,499.777h-.031a1.8,1.8,0,0,1-1.771-1.83,57.292,57.292,0,0,1,10.119-31.625,1.8,1.8,0,1,1,2.967,2.041,53.7,53.7,0,0,0-9.484,29.643A1.8,1.8,0,0,1,1275.888,499.777Z" transform="translate(-1265.747 -439.506)" fill="#444b54"/>
  <path id="Path_30992" data-name="Path 30992" d="M1296.292,571.326a1.79,1.79,0,0,1-1.046-.336,38.6,38.6,0,0,1-4.216-3.5c-.031-.03-.061-.061-.091-.094a57.043,57.043,0,0,1-11.227-18.557,1.8,1.8,0,1,1,3.379-1.247,53.46,53.46,0,0,0,10.477,17.342,35.152,35.152,0,0,0,3.775,3.125,1.8,1.8,0,0,1-1.05,3.265Z" transform="translate(-1267.288 -462.135)" fill="#444b54"/>
  <path id="Path_30993" data-name="Path 30993" d="M1397.853,461.465a1.8,1.8,0,0,1-1.767-1.47l-2.187-11.688a1.8,1.8,0,0,1,1.439-2.1l11.688-2.186a1.8,1.8,0,0,1,.663,3.54l-9.918,1.855,1.855,9.918a1.8,1.8,0,0,1-1.772,2.133Z" transform="translate(-1299.252 -433.475)" fill="#444b54"/>
  <path id="Path_30994" data-name="Path 30994" d="M1413.332,540.828a1.8,1.8,0,0,1-1.313-3.032,54.352,54.352,0,0,0,6.839-9.022,55.859,55.859,0,0,0-8.679-67.386,1.8,1.8,0,1,1,2.553-2.54,59.47,59.47,0,0,1,9.222,71.763,58.013,58.013,0,0,1-7.308,9.648A1.8,1.8,0,0,1,1413.332,540.828Z" transform="translate(-1303.666 -437.483)" fill="#444b54"/>
  <g id="Group_6062" data-name="Group 6062" transform="translate(1.494 108.209)" opacity="0.2">
    <path id="Path_30995" data-name="Path 30995" d="M1272.742,592.2a1.44,1.44,0,0,1-1.44-1.441v-9.688a1.441,1.441,0,1,1,2.881,0v9.688A1.441,1.441,0,0,1,1272.742,592.2Z" transform="translate(-1266.458 -579.632)" fill="#444b54"/>
    <path id="Path_30996" data-name="Path 30996" d="M1275.706,589.237h-9.689a1.44,1.44,0,1,1,0-2.881h9.689a1.44,1.44,0,0,1,0,2.881Z" transform="translate(-1264.576 -581.513)" fill="#444b54"/>
  </g>
  <path id="Path_30997" data-name="Path 30997" d="M1428.073,441.89a6.25,6.25,0,1,1,6.25-6.25A6.257,6.257,0,0,1,1428.073,441.89Zm0-9.618a3.369,3.369,0,1,0,3.369,3.369A3.372,3.372,0,0,0,1428.073,432.272Z" transform="translate(-1307.072 -429.391)" fill="#444b54" opacity="0.2" style="isolation: isolate"/>
  <path id="Path_34294" data-name="Path 34294" d="M166.008,252.147h3.579v23.711h5.245V246.9h-8.824Z" transform="translate(-110.848 -173.514)" fill="#1ac977"/>
  <path id="Path_34295" data-name="Path 34295" d="M258.9,256.632h-2.618v-4.485h9.608V246.9H251.036v14.975H258.9a4.368,4.368,0,1,1,0,8.735h-7.863v5.245H258.9a9.613,9.613,0,1,0,0-19.226Z" transform="translate(-181.013 -173.514)" fill="#1ac977"/>
</svg>
